<?xml version="1.0" encoding="UTF-8" standalone="no"?>
<!DOCTYPE svg PUBLIC "-//W3C//DTD SVG 1.1//EN"
 "http://www.w3.org/Graphics/SVG/1.1/DTD/svg11.dtd">
<!-- Generated by graphviz version 2.40.1 (20161225.0304)
 -->
<!-- Title: %3 Pages: 1 -->
<svg width="389pt" height="264pt"
 viewBox="0.00 0.00 388.50 264.00" xmlns="http://www.w3.org/2000/svg" xmlns:xlink="http://www.w3.org/1999/xlink">
<g id="graph0" class="graph" transform="scale(1 1) rotate(0) translate(4 260)">
<title>%3</title>
<polygon fill="#ffffff" stroke="transparent" points="-4,4 -4,-260 384.5,-260 384.5,4 -4,4"/>
<!-- 2 -->
<g id="node1" class="node">
<title>2</title>
<path fill="#ff0000" stroke="#000000" d="M12,-.5C12,-.5 50,-.5 50,-.5 56,-.5 62,-6.5 62,-12.5 62,-12.5 62,-24.5 62,-24.5 62,-30.5 56,-36.5 50,-36.5 50,-36.5 12,-36.5 12,-36.5 6,-36.5 0,-30.5 0,-24.5 0,-24.5 0,-12.5 0,-12.5 0,-6.5 6,-.5 12,-.5"/>
<text text-anchor="middle" x="9.75" y="-14.3" font-family="Times,serif" font-size="14.00" fill="#000000"> </text>
<polyline fill="none" stroke="#000000" points="19.5,-.5 19.5,-36.5 "/>
<text text-anchor="middle" x="31" y="-14.3" font-family="Times,serif" font-size="14.00" fill="#000000">2</text>
<polyline fill="none" stroke="#000000" points="42.5,-.5 42.5,-36.5 "/>
<text text-anchor="middle" x="52.25" y="-14.3" font-family="Times,serif" font-size="14.00" fill="#000000"> </text>
</g>
<!-- 3 -->
<g id="node2" class="node">
<title>3</title>
<path fill="#c0c0c0" stroke="#000000" d="M52,-73.5C52,-73.5 90,-73.5 90,-73.5 96,-73.5 102,-79.5 102,-85.5 102,-85.5 102,-97.5 102,-97.5 102,-103.5 96,-109.5 90,-109.5 90,-109.5 52,-109.5 52,-109.5 46,-109.5 40,-103.5 40,-97.5 40,-97.5 40,-85.5 40,-85.5 40,-79.5 46,-73.5 52,-73.5"/>
<text text-anchor="middle" x="49.75" y="-87.3" font-family="Times,serif" font-size="14.00" fill="#000000"> </text>
<polyline fill="none" stroke="#000000" points="59.5,-73.5 59.5,-109.5 "/>
<text text-anchor="middle" x="71" y="-87.3" font-family="Times,serif" font-size="14.00" fill="#000000">3</text>
<polyline fill="none" stroke="#000000" points="82.5,-73.5 82.5,-109.5 "/>
<text text-anchor="middle" x="92.25" y="-87.3" font-family="Times,serif" font-size="14.00" fill="#000000"> </text>
</g>
<!-- 3&#45;&gt;2 -->
<g id="edge1" class="edge">
<title>3:f0&#45;&gt;2:f1</title>
<path fill="none" stroke="#000000" d="M50,-73.5C50,-59.0579 38.4033,-55.8815 33.3298,-46.3681"/>
<polygon fill="#000000" stroke="#000000" points="36.7042,-45.4282 31,-36.5 29.8915,-47.0367 36.7042,-45.4282"/>
</g>
<!-- 6 -->
<g id="node3" class="node">
<title>6</title>
<path fill="#ff0000" stroke="#000000" d="M92,-.5C92,-.5 130,-.5 130,-.5 136,-.5 142,-6.5 142,-12.5 142,-12.5 142,-24.5 142,-24.5 142,-30.5 136,-36.5 130,-36.5 130,-36.5 92,-36.5 92,-36.5 86,-36.5 80,-30.5 80,-24.5 80,-24.5 80,-12.5 80,-12.5 80,-6.5 86,-.5 92,-.5"/>
<text text-anchor="middle" x="89.75" y="-14.3" font-family="Times,serif" font-size="14.00" fill="#000000"> </text>
<polyline fill="none" stroke="#000000" points="99.5,-.5 99.5,-36.5 "/>
<text text-anchor="middle" x="111" y="-14.3" font-family="Times,serif" font-size="14.00" fill="#000000">6</text>
<polyline fill="none" stroke="#000000" points="122.5,-.5 122.5,-36.5 "/>
<text text-anchor="middle" x="132.25" y="-14.3" font-family="Times,serif" font-size="14.00" fill="#000000"> </text>
</g>
<!-- 3&#45;&gt;6 -->
<g id="edge2" class="edge">
<title>3:f2&#45;&gt;6:f1</title>
<path fill="none" stroke="#000000" d="M92,-73.5C92,-59.0579 103.5967,-55.8815 108.6702,-46.3681"/>
<polygon fill="#000000" stroke="#000000" points="112.1085,-47.0367 111,-36.5 105.2958,-45.4282 112.1085,-47.0367"/>
</g>
<!-- 7 -->
<g id="node4" class="node">
<title>7</title>
<path fill="#ff0000" stroke="#000000" d="M111,-146.5C111,-146.5 149,-146.5 149,-146.5 155,-146.5 161,-152.5 161,-158.5 161,-158.5 161,-170.5 161,-170.5 161,-176.5 155,-182.5 149,-182.5 149,-182.5 111,-182.5 111,-182.5 105,-182.5 99,-176.5 99,-170.5 99,-170.5 99,-158.5 99,-158.5 99,-152.5 105,-146.5 111,-146.5"/>
<text text-anchor="middle" x="108.75" y="-160.3" font-family="Times,serif" font-size="14.00" fill="#000000"> </text>
<polyline fill="none" stroke="#000000" points="118.5,-146.5 118.5,-182.5 "/>
<text text-anchor="middle" x="130" y="-160.3" font-family="Times,serif" font-size="14.00" fill="#000000">7</text>
<polyline fill="none" stroke="#000000" points="141.5,-146.5 141.5,-182.5 "/>
<text text-anchor="middle" x="151.25" y="-160.3" font-family="Times,serif" font-size="14.00" fill="#000000"> </text>
</g>
<!-- 7&#45;&gt;3 -->
<g id="edge3" class="edge">
<title>7:f0&#45;&gt;3:f1</title>
<path fill="none" stroke="#000000" d="M109,-146.5C109,-127.1633 83.4293,-130.5152 74.2399,-119.3323"/>
<polygon fill="#000000" stroke="#000000" points="77.4539,-117.9023 71,-109.5 70.8055,-120.0931 77.4539,-117.9023"/>
</g>
<!-- 8 -->
<g id="node5" class="node">
<title>8</title>
<path fill="#c0c0c0" stroke="#000000" d="M132,-73.5C132,-73.5 170,-73.5 170,-73.5 176,-73.5 182,-79.5 182,-85.5 182,-85.5 182,-97.5 182,-97.5 182,-103.5 176,-109.5 170,-109.5 170,-109.5 132,-109.5 132,-109.5 126,-109.5 120,-103.5 120,-97.5 120,-97.5 120,-85.5 120,-85.5 120,-79.5 126,-73.5 132,-73.5"/>
<text text-anchor="middle" x="129.75" y="-87.3" font-family="Times,serif" font-size="14.00" fill="#000000"> </text>
<polyline fill="none" stroke="#000000" points="139.5,-73.5 139.5,-109.5 "/>
<text text-anchor="middle" x="151" y="-87.3" font-family="Times,serif" font-size="14.00" fill="#000000">8</text>
<polyline fill="none" stroke="#000000" points="162.5,-73.5 162.5,-109.5 "/>
<text text-anchor="middle" x="172.25" y="-87.3" font-family="Times,serif" font-size="14.00" fill="#000000"> </text>
</g>
<!-- 7&#45;&gt;8 -->
<g id="edge4" class="edge">
<title>7:f2&#45;&gt;8:f1</title>
<path fill="none" stroke="#000000" d="M151,-146.5C151,-134.0382 151,-128.6592 151,-119.6281"/>
<polygon fill="#000000" stroke="#000000" points="154.5001,-119.5 151,-109.5 147.5001,-119.5 154.5001,-119.5"/>
</g>
<!-- 10 -->
<g id="node6" class="node">
<title>10</title>
<path fill="#c0c0c0" stroke="#000000" d="M171.5,-219.5C171.5,-219.5 216.5,-219.5 216.5,-219.5 222.5,-219.5 228.5,-225.5 228.5,-231.5 228.5,-231.5 228.5,-243.5 228.5,-243.5 228.5,-249.5 222.5,-255.5 216.5,-255.5 216.5,-255.5 171.5,-255.5 171.5,-255.5 165.5,-255.5 159.5,-249.5 159.5,-243.5 159.5,-243.5 159.5,-231.5 159.5,-231.5 159.5,-225.5 165.5,-219.5 171.5,-219.5"/>
<text text-anchor="middle" x="169.25" y="-233.3" font-family="Times,serif" font-size="14.00" fill="#000000"> </text>
<polyline fill="none" stroke="#000000" points="179,-219.5 179,-255.5 "/>
<text text-anchor="middle" x="194" y="-233.3" font-family="Times,serif" font-size="14.00" fill="#000000">10</text>
<polyline fill="none" stroke="#000000" points="209,-219.5 209,-255.5 "/>
<text text-anchor="middle" x="218.75" y="-233.3" font-family="Times,serif" font-size="14.00" fill="#000000"> </text>
</g>
<!-- 10&#45;&gt;7 -->
<g id="edge5" class="edge">
<title>10:f0&#45;&gt;7:f1</title>
<path fill="none" stroke="#000000" d="M169,-219.5C169,-199.7138 142.2542,-203.7097 133.0603,-192.0986"/>
<polygon fill="#000000" stroke="#000000" points="136.3723,-190.9643 130,-182.5 129.7031,-193.0907 136.3723,-190.9643"/>
</g>
<!-- 18 -->
<g id="node7" class="node">
<title>18</title>
<path fill="#ff0000" stroke="#000000" d="M236.5,-146.5C236.5,-146.5 281.5,-146.5 281.5,-146.5 287.5,-146.5 293.5,-152.5 293.5,-158.5 293.5,-158.5 293.5,-170.5 293.5,-170.5 293.5,-176.5 287.5,-182.5 281.5,-182.5 281.5,-182.5 236.5,-182.5 236.5,-182.5 230.5,-182.5 224.5,-176.5 224.5,-170.5 224.5,-170.5 224.5,-158.5 224.5,-158.5 224.5,-152.5 230.5,-146.5 236.5,-146.5"/>
<text text-anchor="middle" x="234.25" y="-160.3" font-family="Times,serif" font-size="14.00" fill="#000000"> </text>
<polyline fill="none" stroke="#000000" points="244,-146.5 244,-182.5 "/>
<text text-anchor="middle" x="259" y="-160.3" font-family="Times,serif" font-size="14.00" fill="#000000">18</text>
<polyline fill="none" stroke="#000000" points="274,-146.5 274,-182.5 "/>
<text text-anchor="middle" x="283.75" y="-160.3" font-family="Times,serif" font-size="14.00" fill="#000000"> </text>
</g>
<!-- 10&#45;&gt;18 -->
<g id="edge6" class="edge">
<title>10:f2&#45;&gt;18:f1</title>
<path fill="none" stroke="#000000" d="M219,-219.5C219,-199.4452 246.4316,-203.8398 255.8613,-192.1895"/>
<polygon fill="#000000" stroke="#000000" points="259.2479,-193.0919 259,-182.5 252.5886,-190.9347 259.2479,-193.0919"/>
</g>
<!-- 11 -->
<g id="node8" class="node">
<title>11</title>
<path fill="#c0c0c0" stroke="#000000" d="M211.7563,-73.5C211.7563,-73.5 256.2437,-73.5 256.2437,-73.5 262.2437,-73.5 268.2437,-79.5 268.2437,-85.5 268.2437,-85.5 268.2437,-97.5 268.2437,-97.5 268.2437,-103.5 262.2437,-109.5 256.2437,-109.5 256.2437,-109.5 211.7563,-109.5 211.7563,-109.5 205.7563,-109.5 199.7563,-103.5 199.7563,-97.5 199.7563,-97.5 199.7563,-85.5 199.7563,-85.5 199.7563,-79.5 205.7563,-73.5 211.7563,-73.5"/>
<text text-anchor="middle" x="209.5063" y="-87.3" font-family="Times,serif" font-size="14.00" fill="#000000"> </text>
<polyline fill="none" stroke="#000000" points="219.2563,-73.5 219.2563,-109.5 "/>
<text text-anchor="middle" x="234" y="-87.3" font-family="Times,serif" font-size="14.00" fill="#000000">11</text>
<polyline fill="none" stroke="#000000" points="248.7437,-73.5 248.7437,-109.5 "/>
<text text-anchor="middle" x="258.4937" y="-87.3" font-family="Times,serif" font-size="14.00" fill="#000000"> </text>
</g>
<!-- 18&#45;&gt;11 -->
<g id="edge8" class="edge">
<title>18:f0&#45;&gt;11:f1</title>
<path fill="none" stroke="#000000" d="M234,-146.5C234,-134.0382 234,-128.6592 234,-119.6281"/>
<polygon fill="#000000" stroke="#000000" points="237.5001,-119.5 234,-109.5 230.5001,-119.5 237.5001,-119.5"/>
</g>
<!-- 22 -->
<g id="node10" class="node">
<title>22</title>
<path fill="#c0c0c0" stroke="#000000" d="M298.5,-73.5C298.5,-73.5 343.5,-73.5 343.5,-73.5 349.5,-73.5 355.5,-79.5 355.5,-85.5 355.5,-85.5 355.5,-97.5 355.5,-97.5 355.5,-103.5 349.5,-109.5 343.5,-109.5 343.5,-109.5 298.5,-109.5 298.5,-109.5 292.5,-109.5 286.5,-103.5 286.5,-97.5 286.5,-97.5 286.5,-85.5 286.5,-85.5 286.5,-79.5 292.5,-73.5 298.5,-73.5"/>
<text text-anchor="middle" x="296.25" y="-87.3" font-family="Times,serif" font-size="14.00" fill="#000000"> </text>
<polyline fill="none" stroke="#000000" points="306,-73.5 306,-109.5 "/>
<text text-anchor="middle" x="321" y="-87.3" font-family="Times,serif" font-size="14.00" fill="#000000">22</text>
<polyline fill="none" stroke="#000000" points="336,-73.5 336,-109.5 "/>
<text text-anchor="middle" x="345.75" y="-87.3" font-family="Times,serif" font-size="14.00" fill="#000000"> </text>
</g>
<!-- 18&#45;&gt;22 -->
<g id="edge9" class="edge">
<title>18:f2&#45;&gt;22:f1</title>
<path fill="none" stroke="#000000" d="M284,-146.5C284,-127.4228 308.8978,-130.3956 317.8454,-119.2426"/>
<polygon fill="#000000" stroke="#000000" points="321.2493,-120.0919 321,-109.5 314.5897,-117.9355 321.2493,-120.0919"/>
</g>
<!-- 13 -->
<g id="node9" class="node">
<title>13</title>
<path fill="#ff0000" stroke="#000000" d="M235.5,-.5C235.5,-.5 280.5,-.5 280.5,-.5 286.5,-.5 292.5,-6.5 292.5,-12.5 292.5,-12.5 292.5,-24.5 292.5,-24.5 292.5,-30.5 286.5,-36.5 280.5,-36.5 280.5,-36.5 235.5,-36.5 235.5,-36.5 229.5,-36.5 223.5,-30.5 223.5,-24.5 223.5,-24.5 223.5,-12.5 223.5,-12.5 223.5,-6.5 229.5,-.5 235.5,-.5"/>
<text text-anchor="middle" x="233.25" y="-14.3" font-family="Times,serif" font-size="14.00" fill="#000000"> </text>
<polyline fill="none" stroke="#000000" points="243,-.5 243,-36.5 "/>
<text text-anchor="middle" x="258" y="-14.3" font-family="Times,serif" font-size="14.00" fill="#000000">13</text>
<polyline fill="none" stroke="#000000" points="273,-.5 273,-36.5 "/>
<text text-anchor="middle" x="282.75" y="-14.3" font-family="Times,serif" font-size="14.00" fill="#000000"> </text>
</g>
<!-- 11&#45;&gt;13 -->
<g id="edge7" class="edge">
<title>11:f2&#45;&gt;13:f1</title>
<path fill="none" stroke="#000000" d="M258,-73.5C258,-61.0382 258,-55.6592 258,-46.6281"/>
<polygon fill="#000000" stroke="#000000" points="261.5001,-46.5 258,-36.5 254.5001,-46.5 261.5001,-46.5"/>
</g>
<!-- 26 -->
<g id="node11" class="node">
<title>26</title>
<path fill="#ff0000" stroke="#000000" d="M323.5,-.5C323.5,-.5 368.5,-.5 368.5,-.5 374.5,-.5 380.5,-6.5 380.5,-12.5 380.5,-12.5 380.5,-24.5 380.5,-24.5 380.5,-30.5 374.5,-36.5 368.5,-36.5 368.5,-36.5 323.5,-36.5 323.5,-36.5 317.5,-36.5 311.5,-30.5 311.5,-24.5 311.5,-24.5 311.5,-12.5 311.5,-12.5 311.5,-6.5 317.5,-.5 323.5,-.5"/>
<text text-anchor="middle" x="321.25" y="-14.3" font-family="Times,serif" font-size="14.00" fill="#000000"> </text>
<polyline fill="none" stroke="#000000" points="331,-.5 331,-36.5 "/>
<text text-anchor="middle" x="346" y="-14.3" font-family="Times,serif" font-size="14.00" fill="#000000">26</text>
<polyline fill="none" stroke="#000000" points="361,-.5 361,-36.5 "/>
<text text-anchor="middle" x="370.75" y="-14.3" font-family="Times,serif" font-size="14.00" fill="#000000"> </text>
</g>
<!-- 22&#45;&gt;26 -->
<g id="edge10" class="edge">
<title>22:f2&#45;&gt;26:f1</title>
<path fill="none" stroke="#000000" d="M346,-73.5C346,-61.0382 346,-55.6592 346,-46.6281"/>
<polygon fill="#000000" stroke="#000000" points="349.5001,-46.5 346,-36.5 342.5001,-46.5 349.5001,-46.5"/>
</g>
</g>
</svg>
