<?xml version="1.0" encoding="UTF-8" standalone="no"?>
<!DOCTYPE svg PUBLIC "-//W3C//DTD SVG 1.1//EN"
 "http://www.w3.org/Graphics/SVG/1.1/DTD/svg11.dtd">
<!-- Generated by graphviz version 2.38.0 (20140413.2041)
 -->
<!-- Title: %3 Pages: 1 -->
<svg width="482pt" height="410pt"
 viewBox="0.00 0.00 481.82 410.00" xmlns="http://www.w3.org/2000/svg" xmlns:xlink="http://www.w3.org/1999/xlink">
<g id="graph0" class="graph" transform="scale(1 1) rotate(0) translate(4 406)">
<title>%3</title>
<polygon fill="white" stroke="none" points="-4,4 -4,-406 477.824,-406 477.824,4 -4,4"/>
<!-- 42 -->
<g id="node1" class="node"><title>42</title>
<polygon fill="none" stroke="black" points="136,-365.5 136,-401.5 228.324,-401.5 228.324,-365.5 136,-365.5"/>
<text text-anchor="middle" x="145.75" y="-379.3" font-family="Times,serif" font-size="14.00"> </text>
<polyline fill="none" stroke="black" points="155.5,-365.5 155.5,-401.5 "/>
<text text-anchor="middle" x="182.162" y="-379.3" font-family="Times,serif" font-size="14.00">42(15)</text>
<polyline fill="none" stroke="black" points="208.824,-365.5 208.824,-401.5 "/>
<text text-anchor="middle" x="218.574" y="-379.3" font-family="Times,serif" font-size="14.00"> </text>
</g>
<!-- 17 -->
<g id="node2" class="node"><title>17</title>
<polygon fill="none" stroke="black" points="63.5,-292.5 63.5,-328.5 148.824,-328.5 148.824,-292.5 63.5,-292.5"/>
<text text-anchor="middle" x="73.25" y="-306.3" font-family="Times,serif" font-size="14.00"> </text>
<polyline fill="none" stroke="black" points="83,-292.5 83,-328.5 "/>
<text text-anchor="middle" x="106.162" y="-306.3" font-family="Times,serif" font-size="14.00">17(5)</text>
<polyline fill="none" stroke="black" points="129.324,-292.5 129.324,-328.5 "/>
<text text-anchor="middle" x="139.074" y="-306.3" font-family="Times,serif" font-size="14.00"> </text>
</g>
<!-- 42&#45;&gt;17 -->
<g id="edge1" class="edge"><title>42:f0&#45;&gt;17:f1</title>
<path fill="none" stroke="black" d="M146.162,-365C146.162,-345.193 118.73,-349.905 109.301,-338.527"/>
<polygon fill="black" stroke="black" points="112.616,-337.403 106.162,-329 105.967,-339.593 112.616,-337.403"/>
</g>
<!-- 99 -->
<g id="node3" class="node"><title>99</title>
<polygon fill="none" stroke="black" points="215.5,-292.5 215.5,-328.5 300.824,-328.5 300.824,-292.5 215.5,-292.5"/>
<text text-anchor="middle" x="225.25" y="-306.3" font-family="Times,serif" font-size="14.00"> </text>
<polyline fill="none" stroke="black" points="235,-292.5 235,-328.5 "/>
<text text-anchor="middle" x="258.162" y="-306.3" font-family="Times,serif" font-size="14.00">99(9)</text>
<polyline fill="none" stroke="black" points="281.324,-292.5 281.324,-328.5 "/>
<text text-anchor="middle" x="291.074" y="-306.3" font-family="Times,serif" font-size="14.00"> </text>
</g>
<!-- 42&#45;&gt;99 -->
<g id="edge2" class="edge"><title>42:f2&#45;&gt;99:f1</title>
<path fill="none" stroke="black" d="M218.162,-365C218.162,-345.193 245.594,-349.905 255.023,-338.527"/>
<polygon fill="black" stroke="black" points="258.357,-339.593 258.162,-329 251.709,-337.403 258.357,-339.593"/>
</g>
<!-- 0 -->
<g id="node4" class="node"><title>0</title>
<polygon fill="none" stroke="black" points="0,-219.5 0,-255.5 78.3242,-255.5 78.3242,-219.5 0,-219.5"/>
<text text-anchor="middle" x="9.75" y="-233.3" font-family="Times,serif" font-size="14.00"> </text>
<polyline fill="none" stroke="black" points="19.5,-219.5 19.5,-255.5 "/>
<text text-anchor="middle" x="39.1621" y="-233.3" font-family="Times,serif" font-size="14.00">0(1)</text>
<polyline fill="none" stroke="black" points="58.8242,-219.5 58.8242,-255.5 "/>
<text text-anchor="middle" x="68.5742" y="-233.3" font-family="Times,serif" font-size="14.00"> </text>
</g>
<!-- 17&#45;&gt;0 -->
<g id="edge3" class="edge"><title>17:f0&#45;&gt;0:f1</title>
<path fill="none" stroke="black" d="M73.1621,-292C73.1621,-274.119 50.7168,-276.057 42.2998,-265.609"/>
<polygon fill="black" stroke="black" points="45.5934,-264.42 39.1621,-256 38.9392,-266.592 45.5934,-264.42"/>
</g>
<!-- 24 -->
<g id="node5" class="node"><title>24</title>
<polygon fill="none" stroke="black" points="96.5,-219.5 96.5,-255.5 181.824,-255.5 181.824,-219.5 96.5,-219.5"/>
<text text-anchor="middle" x="106.25" y="-233.3" font-family="Times,serif" font-size="14.00"> </text>
<polyline fill="none" stroke="black" points="116,-219.5 116,-255.5 "/>
<text text-anchor="middle" x="139.162" y="-233.3" font-family="Times,serif" font-size="14.00">24(3)</text>
<polyline fill="none" stroke="black" points="162.324,-219.5 162.324,-255.5 "/>
<text text-anchor="middle" x="172.074" y="-233.3" font-family="Times,serif" font-size="14.00"> </text>
</g>
<!-- 17&#45;&gt;24 -->
<g id="edge4" class="edge"><title>17:f2&#45;&gt;24:f1</title>
<path fill="none" stroke="black" d="M139.162,-292C139.162,-280 139.162,-274.75 139.162,-266.125"/>
<polygon fill="black" stroke="black" points="142.662,-266 139.162,-256 135.662,-266 142.662,-266"/>
</g>
<!-- 73 -->
<g id="node8" class="node"><title>73</title>
<polygon fill="none" stroke="black" points="232.5,-219.5 232.5,-255.5 317.824,-255.5 317.824,-219.5 232.5,-219.5"/>
<text text-anchor="middle" x="242.25" y="-233.3" font-family="Times,serif" font-size="14.00"> </text>
<polyline fill="none" stroke="black" points="252,-219.5 252,-255.5 "/>
<text text-anchor="middle" x="275.162" y="-233.3" font-family="Times,serif" font-size="14.00">73(8)</text>
<polyline fill="none" stroke="black" points="298.324,-219.5 298.324,-255.5 "/>
<text text-anchor="middle" x="308.074" y="-233.3" font-family="Times,serif" font-size="14.00"> </text>
</g>
<!-- 99&#45;&gt;73 -->
<g id="edge7" class="edge"><title>99:f0&#45;&gt;73:f1</title>
<path fill="none" stroke="black" d="M225.162,-292C225.162,-268.896 260.758,-278.645 271.881,-265.808"/>
<polygon fill="black" stroke="black" points="275.309,-266.594 275.162,-256 268.671,-264.373 275.309,-266.594"/>
</g>
<!-- 18 -->
<g id="node6" class="node"><title>18</title>
<polygon fill="none" stroke="black" points="47.5,-146.5 47.5,-182.5 132.824,-182.5 132.824,-146.5 47.5,-146.5"/>
<text text-anchor="middle" x="57.25" y="-160.3" font-family="Times,serif" font-size="14.00"> </text>
<polyline fill="none" stroke="black" points="67,-146.5 67,-182.5 "/>
<text text-anchor="middle" x="90.1621" y="-160.3" font-family="Times,serif" font-size="14.00">18(2)</text>
<polyline fill="none" stroke="black" points="113.324,-146.5 113.324,-182.5 "/>
<text text-anchor="middle" x="123.074" y="-160.3" font-family="Times,serif" font-size="14.00"> </text>
</g>
<!-- 24&#45;&gt;18 -->
<g id="edge5" class="edge"><title>24:f0&#45;&gt;18:f1</title>
<path fill="none" stroke="black" d="M106.162,-219C106.162,-205.595 96.7832,-201.877 92.3868,-193.013"/>
<polygon fill="black" stroke="black" points="95.7478,-192.003 90.1621,-183 88.9144,-193.521 95.7478,-192.003"/>
</g>
<!-- 21 -->
<g id="node7" class="node"><title>21</title>
<polygon fill="none" stroke="black" points="46.5,-73.5 46.5,-109.5 131.824,-109.5 131.824,-73.5 46.5,-73.5"/>
<text text-anchor="middle" x="56.25" y="-87.3" font-family="Times,serif" font-size="14.00"> </text>
<polyline fill="none" stroke="black" points="66,-73.5 66,-109.5 "/>
<text text-anchor="middle" x="89.1621" y="-87.3" font-family="Times,serif" font-size="14.00">21(1)</text>
<polyline fill="none" stroke="black" points="112.324,-73.5 112.324,-109.5 "/>
<text text-anchor="middle" x="122.074" y="-87.3" font-family="Times,serif" font-size="14.00"> </text>
</g>
<!-- 18&#45;&gt;21 -->
<g id="edge6" class="edge"><title>18:f2&#45;&gt;21:f1</title>
<path fill="none" stroke="black" d="M123.162,-146C123.162,-128.119 100.717,-130.057 92.2998,-119.609"/>
<polygon fill="black" stroke="black" points="95.5934,-118.42 89.1621,-110 88.9392,-120.592 95.5934,-118.42"/>
</g>
<!-- 53 -->
<g id="node9" class="node"><title>53</title>
<polygon fill="none" stroke="black" points="199.5,-146.5 199.5,-182.5 284.824,-182.5 284.824,-146.5 199.5,-146.5"/>
<text text-anchor="middle" x="209.25" y="-160.3" font-family="Times,serif" font-size="14.00"> </text>
<polyline fill="none" stroke="black" points="219,-146.5 219,-182.5 "/>
<text text-anchor="middle" x="242.162" y="-160.3" font-family="Times,serif" font-size="14.00">53(4)</text>
<polyline fill="none" stroke="black" points="265.324,-146.5 265.324,-182.5 "/>
<text text-anchor="middle" x="275.074" y="-160.3" font-family="Times,serif" font-size="14.00"> </text>
</g>
<!-- 73&#45;&gt;53 -->
<g id="edge8" class="edge"><title>73:f0&#45;&gt;53:f1</title>
<path fill="none" stroke="black" d="M242.162,-219C242.162,-207 242.162,-201.75 242.162,-193.125"/>
<polygon fill="black" stroke="black" points="245.662,-193 242.162,-183 238.662,-193 245.662,-193"/>
</g>
<!-- 84 -->
<g id="node10" class="node"><title>84</title>
<polygon fill="none" stroke="black" points="337.5,-146.5 337.5,-182.5 422.824,-182.5 422.824,-146.5 337.5,-146.5"/>
<text text-anchor="middle" x="347.25" y="-160.3" font-family="Times,serif" font-size="14.00"> </text>
<polyline fill="none" stroke="black" points="357,-146.5 357,-182.5 "/>
<text text-anchor="middle" x="380.162" y="-160.3" font-family="Times,serif" font-size="14.00">84(3)</text>
<polyline fill="none" stroke="black" points="403.324,-146.5 403.324,-182.5 "/>
<text text-anchor="middle" x="413.074" y="-160.3" font-family="Times,serif" font-size="14.00"> </text>
</g>
<!-- 73&#45;&gt;84 -->
<g id="edge9" class="edge"><title>73:f2&#45;&gt;84:f1</title>
<path fill="none" stroke="black" d="M308.162,-219C308.162,-187.416 364.276,-211.424 377.428,-192.869"/>
<polygon fill="black" stroke="black" points="380.865,-193.572 380.162,-183 374.119,-191.702 380.865,-193.572"/>
</g>
<!-- 49 -->
<g id="node11" class="node"><title>49</title>
<polygon fill="none" stroke="black" points="149.5,-73.5 149.5,-109.5 234.824,-109.5 234.824,-73.5 149.5,-73.5"/>
<text text-anchor="middle" x="159.25" y="-87.3" font-family="Times,serif" font-size="14.00"> </text>
<polyline fill="none" stroke="black" points="169,-73.5 169,-109.5 "/>
<text text-anchor="middle" x="192.162" y="-87.3" font-family="Times,serif" font-size="14.00">49(1)</text>
<polyline fill="none" stroke="black" points="215.324,-73.5 215.324,-109.5 "/>
<text text-anchor="middle" x="225.074" y="-87.3" font-family="Times,serif" font-size="14.00"> </text>
</g>
<!-- 53&#45;&gt;49 -->
<g id="edge10" class="edge"><title>53:f0&#45;&gt;49:f1</title>
<path fill="none" stroke="black" d="M209.162,-146C209.162,-132.315 198.993,-128.848 194.385,-119.793"/>
<polygon fill="black" stroke="black" points="197.788,-118.977 192.162,-110 190.962,-120.527 197.788,-118.977"/>
</g>
<!-- 67 -->
<g id="node12" class="node"><title>67</title>
<polygon fill="none" stroke="black" points="252.5,-73.5 252.5,-109.5 337.824,-109.5 337.824,-73.5 252.5,-73.5"/>
<text text-anchor="middle" x="262.25" y="-87.3" font-family="Times,serif" font-size="14.00"> </text>
<polyline fill="none" stroke="black" points="272,-73.5 272,-109.5 "/>
<text text-anchor="middle" x="295.162" y="-87.3" font-family="Times,serif" font-size="14.00">67(2)</text>
<polyline fill="none" stroke="black" points="318.324,-73.5 318.324,-109.5 "/>
<text text-anchor="middle" x="328.074" y="-87.3" font-family="Times,serif" font-size="14.00"> </text>
</g>
<!-- 53&#45;&gt;67 -->
<g id="edge11" class="edge"><title>53:f2&#45;&gt;67:f1</title>
<path fill="none" stroke="black" d="M275.162,-146C275.162,-131.844 287.126,-128.999 292.547,-119.968"/>
<polygon fill="black" stroke="black" points="296.01,-120.561 295.162,-110 289.239,-118.785 296.01,-120.561"/>
</g>
<!-- 93 -->
<g id="node14" class="node"><title>93</title>
<polygon fill="none" stroke="black" points="388.5,-73.5 388.5,-109.5 473.824,-109.5 473.824,-73.5 388.5,-73.5"/>
<text text-anchor="middle" x="398.25" y="-87.3" font-family="Times,serif" font-size="14.00"> </text>
<polyline fill="none" stroke="black" points="408,-73.5 408,-109.5 "/>
<text text-anchor="middle" x="431.162" y="-87.3" font-family="Times,serif" font-size="14.00">93(2)</text>
<polyline fill="none" stroke="black" points="454.324,-73.5 454.324,-109.5 "/>
<text text-anchor="middle" x="464.074" y="-87.3" font-family="Times,serif" font-size="14.00"> </text>
</g>
<!-- 84&#45;&gt;93 -->
<g id="edge13" class="edge"><title>84:f2&#45;&gt;93:f1</title>
<path fill="none" stroke="black" d="M413.162,-146C413.162,-132.164 423.93,-128.896 428.809,-119.849"/>
<polygon fill="black" stroke="black" points="432.242,-120.54 431.162,-110 425.434,-118.913 432.242,-120.54"/>
</g>
<!-- 68 -->
<g id="node13" class="node"><title>68</title>
<polygon fill="none" stroke="black" points="268.5,-0.5 268.5,-36.5 353.824,-36.5 353.824,-0.5 268.5,-0.5"/>
<text text-anchor="middle" x="278.25" y="-14.3" font-family="Times,serif" font-size="14.00"> </text>
<polyline fill="none" stroke="black" points="288,-0.5 288,-36.5 "/>
<text text-anchor="middle" x="311.162" y="-14.3" font-family="Times,serif" font-size="14.00">68(1)</text>
<polyline fill="none" stroke="black" points="334.324,-0.5 334.324,-36.5 "/>
<text text-anchor="middle" x="344.074" y="-14.3" font-family="Times,serif" font-size="14.00"> </text>
</g>
<!-- 67&#45;&gt;68 -->
<g id="edge12" class="edge"><title>67:f2&#45;&gt;68:f1</title>
<path fill="none" stroke="black" d="M328.162,-73C328.162,-59.3146 317.993,-55.8482 313.385,-46.7933"/>
<polygon fill="black" stroke="black" points="316.788,-45.9774 311.162,-37 309.962,-47.5266 316.788,-45.9774"/>
</g>
<!-- 91 -->
<g id="node15" class="node"><title>91</title>
<polygon fill="none" stroke="black" points="371.5,-0.5 371.5,-36.5 456.824,-36.5 456.824,-0.5 371.5,-0.5"/>
<text text-anchor="middle" x="381.25" y="-14.3" font-family="Times,serif" font-size="14.00"> </text>
<polyline fill="none" stroke="black" points="391,-0.5 391,-36.5 "/>
<text text-anchor="middle" x="414.162" y="-14.3" font-family="Times,serif" font-size="14.00">91(1)</text>
<polyline fill="none" stroke="black" points="437.324,-0.5 437.324,-36.5 "/>
<text text-anchor="middle" x="447.074" y="-14.3" font-family="Times,serif" font-size="14.00"> </text>
</g>
<!-- 93&#45;&gt;91 -->
<g id="edge14" class="edge"><title>93:f0&#45;&gt;91:f1</title>
<path fill="none" stroke="black" d="M398.162,-73C398.162,-59.5946 407.541,-55.8772 411.937,-47.013"/>
<polygon fill="black" stroke="black" points="415.41,-47.5211 414.162,-37 408.576,-46.0028 415.41,-47.5211"/>
</g>
</g>
</svg>
