<?xml version="1.0" encoding="UTF-8" standalone="no"?>
<!DOCTYPE svg PUBLIC "-//W3C//DTD SVG 1.1//EN"
 "http://www.w3.org/Graphics/SVG/1.1/DTD/svg11.dtd">
<!-- Generated by graphviz version 2.38.0 (20140413.2041)
 -->
<!-- Title: %3 Pages: 1 -->
<svg width="705pt" height="264pt"
 viewBox="0.00 0.00 704.82 264.00" xmlns="http://www.w3.org/2000/svg" xmlns:xlink="http://www.w3.org/1999/xlink">
<g id="graph0" class="graph" transform="scale(1 1) rotate(0) translate(4 260)">
<title>%3</title>
<polygon fill="white" stroke="none" points="-4,4 -4,-260 700.824,-260 700.824,4 -4,4"/>
<!-- 53 -->
<g id="node1" class="node"><title>53</title>
<polygon fill="none" stroke="black" points="280,-219.5 280,-255.5 372.324,-255.5 372.324,-219.5 280,-219.5"/>
<text text-anchor="middle" x="289.75" y="-233.3" font-family="Times,serif" font-size="14.00"> </text>
<polyline fill="none" stroke="black" points="299.5,-219.5 299.5,-255.5 "/>
<text text-anchor="middle" x="326.162" y="-233.3" font-family="Times,serif" font-size="14.00">53(14)</text>
<polyline fill="none" stroke="black" points="352.824,-219.5 352.824,-255.5 "/>
<text text-anchor="middle" x="362.574" y="-233.3" font-family="Times,serif" font-size="14.00"> </text>
</g>
<!-- 24 -->
<g id="node2" class="node"><title>24</title>
<polygon fill="none" stroke="black" points="199.5,-146.5 199.5,-182.5 284.824,-182.5 284.824,-146.5 199.5,-146.5"/>
<text text-anchor="middle" x="209.25" y="-160.3" font-family="Times,serif" font-size="14.00"> </text>
<polyline fill="none" stroke="black" points="219,-146.5 219,-182.5 "/>
<text text-anchor="middle" x="242.162" y="-160.3" font-family="Times,serif" font-size="14.00">24(6)</text>
<polyline fill="none" stroke="black" points="265.324,-146.5 265.324,-182.5 "/>
<text text-anchor="middle" x="275.074" y="-160.3" font-family="Times,serif" font-size="14.00"> </text>
</g>
<!-- 53&#45;&gt;24 -->
<g id="edge1" class="edge"><title>53:f0&#45;&gt;24:f1</title>
<path fill="none" stroke="black" d="M290.162,-219C290.162,-196.5 255.99,-205.324 245.312,-192.613"/>
<polygon fill="black" stroke="black" points="248.602,-191.413 242.162,-183 241.949,-193.593 248.602,-191.413"/>
</g>
<!-- 84 -->
<g id="node3" class="node"><title>84</title>
<polygon fill="none" stroke="black" points="386.5,-146.5 386.5,-182.5 471.824,-182.5 471.824,-146.5 386.5,-146.5"/>
<text text-anchor="middle" x="396.25" y="-160.3" font-family="Times,serif" font-size="14.00"> </text>
<polyline fill="none" stroke="black" points="406,-146.5 406,-182.5 "/>
<text text-anchor="middle" x="429.162" y="-160.3" font-family="Times,serif" font-size="14.00">84(7)</text>
<polyline fill="none" stroke="black" points="452.324,-146.5 452.324,-182.5 "/>
<text text-anchor="middle" x="462.074" y="-160.3" font-family="Times,serif" font-size="14.00"> </text>
</g>
<!-- 53&#45;&gt;84 -->
<g id="edge2" class="edge"><title>53:f2&#45;&gt;84:f1</title>
<path fill="none" stroke="black" d="M362.162,-219C362.162,-189.421 413.459,-209.924 426.283,-192.866"/>
<polygon fill="black" stroke="black" points="429.721,-193.58 429.162,-183 423.001,-191.619 429.721,-193.58"/>
</g>
<!-- 18 -->
<g id="node4" class="node"><title>18</title>
<polygon fill="none" stroke="black" points="63.5,-73.5 63.5,-109.5 148.824,-109.5 148.824,-73.5 63.5,-73.5"/>
<text text-anchor="middle" x="73.25" y="-87.3" font-family="Times,serif" font-size="14.00"> </text>
<polyline fill="none" stroke="black" points="83,-73.5 83,-109.5 "/>
<text text-anchor="middle" x="106.162" y="-87.3" font-family="Times,serif" font-size="14.00">18(3)</text>
<polyline fill="none" stroke="black" points="129.324,-73.5 129.324,-109.5 "/>
<text text-anchor="middle" x="139.074" y="-87.3" font-family="Times,serif" font-size="14.00"> </text>
</g>
<!-- 24&#45;&gt;18 -->
<g id="edge3" class="edge"><title>24:f0&#45;&gt;18:f1</title>
<path fill="none" stroke="black" d="M209.162,-146C209.162,-101.485 122.367,-149.224 108.128,-119.845"/>
<polygon fill="black" stroke="black" points="111.552,-119.121 106.162,-110 104.688,-120.492 111.552,-119.121"/>
</g>
<!-- 49 -->
<g id="node5" class="node"><title>49</title>
<polygon fill="none" stroke="black" points="232.5,-73.5 232.5,-109.5 317.824,-109.5 317.824,-73.5 232.5,-73.5"/>
<text text-anchor="middle" x="242.25" y="-87.3" font-family="Times,serif" font-size="14.00"> </text>
<polyline fill="none" stroke="black" points="252,-73.5 252,-109.5 "/>
<text text-anchor="middle" x="275.162" y="-87.3" font-family="Times,serif" font-size="14.00">49(2)</text>
<polyline fill="none" stroke="black" points="298.324,-73.5 298.324,-109.5 "/>
<text text-anchor="middle" x="308.074" y="-87.3" font-family="Times,serif" font-size="14.00"> </text>
</g>
<!-- 24&#45;&gt;49 -->
<g id="edge4" class="edge"><title>24:f2&#45;&gt;49:f1</title>
<path fill="none" stroke="black" d="M275.162,-146C275.162,-134 275.162,-128.75 275.162,-120.125"/>
<polygon fill="black" stroke="black" points="278.662,-120 275.162,-110 271.662,-120 278.662,-120"/>
</g>
<!-- 68 -->
<g id="node9" class="node"><title>68</title>
<polygon fill="none" stroke="black" points="353.5,-73.5 353.5,-109.5 438.824,-109.5 438.824,-73.5 353.5,-73.5"/>
<text text-anchor="middle" x="363.25" y="-87.3" font-family="Times,serif" font-size="14.00"> </text>
<polyline fill="none" stroke="black" points="373,-73.5 373,-109.5 "/>
<text text-anchor="middle" x="396.162" y="-87.3" font-family="Times,serif" font-size="14.00">68(3)</text>
<polyline fill="none" stroke="black" points="419.324,-73.5 419.324,-109.5 "/>
<text text-anchor="middle" x="429.074" y="-87.3" font-family="Times,serif" font-size="14.00"> </text>
</g>
<!-- 84&#45;&gt;68 -->
<g id="edge8" class="edge"><title>84:f0&#45;&gt;68:f1</title>
<path fill="none" stroke="black" d="M396.162,-146C396.162,-134 396.162,-128.75 396.162,-120.125"/>
<polygon fill="black" stroke="black" points="399.662,-120 396.162,-110 392.662,-120 399.662,-120"/>
</g>
<!-- 93 -->
<g id="node10" class="node"><title>93</title>
<polygon fill="none" stroke="black" points="541.5,-73.5 541.5,-109.5 626.824,-109.5 626.824,-73.5 541.5,-73.5"/>
<text text-anchor="middle" x="551.25" y="-87.3" font-family="Times,serif" font-size="14.00"> </text>
<polyline fill="none" stroke="black" points="561,-73.5 561,-109.5 "/>
<text text-anchor="middle" x="584.162" y="-87.3" font-family="Times,serif" font-size="14.00">93(3)</text>
<polyline fill="none" stroke="black" points="607.324,-73.5 607.324,-109.5 "/>
<text text-anchor="middle" x="617.074" y="-87.3" font-family="Times,serif" font-size="14.00"> </text>
</g>
<!-- 84&#45;&gt;93 -->
<g id="edge9" class="edge"><title>84:f2&#45;&gt;93:f1</title>
<path fill="none" stroke="black" d="M473.162,-164.5C497.421,-164.5 565.357,-143.441 580.946,-119.599"/>
<polygon fill="black" stroke="black" points="584.304,-120.594 584.162,-110 577.666,-118.37 584.304,-120.594"/>
</g>
<!-- 0 -->
<g id="node6" class="node"><title>0</title>
<polygon fill="none" stroke="black" points="0,-0.5 0,-36.5 78.3242,-36.5 78.3242,-0.5 0,-0.5"/>
<text text-anchor="middle" x="9.75" y="-14.3" font-family="Times,serif" font-size="14.00"> </text>
<polyline fill="none" stroke="black" points="19.5,-0.5 19.5,-36.5 "/>
<text text-anchor="middle" x="39.1621" y="-14.3" font-family="Times,serif" font-size="14.00">0(1)</text>
<polyline fill="none" stroke="black" points="58.8242,-0.5 58.8242,-36.5 "/>
<text text-anchor="middle" x="68.5742" y="-14.3" font-family="Times,serif" font-size="14.00"> </text>
</g>
<!-- 18&#45;&gt;0 -->
<g id="edge5" class="edge"><title>18:f0&#45;&gt;0:f1</title>
<path fill="none" stroke="black" d="M73.1621,-73C73.1621,-55.1186 50.7168,-57.0575 42.2998,-46.6087"/>
<polygon fill="black" stroke="black" points="45.5934,-45.4195 39.1621,-37 38.9392,-47.5925 45.5934,-45.4195"/>
</g>
<!-- 21 -->
<g id="node7" class="node"><title>21</title>
<polygon fill="none" stroke="black" points="96.5,-0.5 96.5,-36.5 181.824,-36.5 181.824,-0.5 96.5,-0.5"/>
<text text-anchor="middle" x="106.25" y="-14.3" font-family="Times,serif" font-size="14.00"> </text>
<polyline fill="none" stroke="black" points="116,-0.5 116,-36.5 "/>
<text text-anchor="middle" x="139.162" y="-14.3" font-family="Times,serif" font-size="14.00">21(1)</text>
<polyline fill="none" stroke="black" points="162.324,-0.5 162.324,-36.5 "/>
<text text-anchor="middle" x="172.074" y="-14.3" font-family="Times,serif" font-size="14.00"> </text>
</g>
<!-- 18&#45;&gt;21 -->
<g id="edge6" class="edge"><title>18:f2&#45;&gt;21:f1</title>
<path fill="none" stroke="black" d="M139.162,-73C139.162,-61 139.162,-55.75 139.162,-47.125"/>
<polygon fill="black" stroke="black" points="142.662,-47 139.162,-37 135.662,-47 142.662,-47"/>
</g>
<!-- 42 -->
<g id="node8" class="node"><title>42</title>
<polygon fill="none" stroke="black" points="199.5,-0.5 199.5,-36.5 284.824,-36.5 284.824,-0.5 199.5,-0.5"/>
<text text-anchor="middle" x="209.25" y="-14.3" font-family="Times,serif" font-size="14.00"> </text>
<polyline fill="none" stroke="black" points="219,-0.5 219,-36.5 "/>
<text text-anchor="middle" x="242.162" y="-14.3" font-family="Times,serif" font-size="14.00">42(1)</text>
<polyline fill="none" stroke="black" points="265.324,-0.5 265.324,-36.5 "/>
<text text-anchor="middle" x="275.074" y="-14.3" font-family="Times,serif" font-size="14.00"> </text>
</g>
<!-- 49&#45;&gt;42 -->
<g id="edge7" class="edge"><title>49:f0&#45;&gt;42:f1</title>
<path fill="none" stroke="black" d="M242.162,-73C242.162,-61 242.162,-55.75 242.162,-47.125"/>
<polygon fill="black" stroke="black" points="245.662,-47 242.162,-37 238.662,-47 245.662,-47"/>
</g>
<!-- 67 -->
<g id="node11" class="node"><title>67</title>
<polygon fill="none" stroke="black" points="302.5,-0.5 302.5,-36.5 387.824,-36.5 387.824,-0.5 302.5,-0.5"/>
<text text-anchor="middle" x="312.25" y="-14.3" font-family="Times,serif" font-size="14.00"> </text>
<polyline fill="none" stroke="black" points="322,-0.5 322,-36.5 "/>
<text text-anchor="middle" x="345.162" y="-14.3" font-family="Times,serif" font-size="14.00">67(1)</text>
<polyline fill="none" stroke="black" points="368.324,-0.5 368.324,-36.5 "/>
<text text-anchor="middle" x="378.074" y="-14.3" font-family="Times,serif" font-size="14.00"> </text>
</g>
<!-- 68&#45;&gt;67 -->
<g id="edge10" class="edge"><title>68:f0&#45;&gt;67:f1</title>
<path fill="none" stroke="black" d="M363.162,-73C363.162,-59.1643 352.394,-55.8963 347.515,-46.8491"/>
<polygon fill="black" stroke="black" points="350.89,-45.9129 345.162,-37 344.082,-47.5396 350.89,-45.9129"/>
</g>
<!-- 73 -->
<g id="node12" class="node"><title>73</title>
<polygon fill="none" stroke="black" points="405.5,-0.5 405.5,-36.5 490.824,-36.5 490.824,-0.5 405.5,-0.5"/>
<text text-anchor="middle" x="415.25" y="-14.3" font-family="Times,serif" font-size="14.00"> </text>
<polyline fill="none" stroke="black" points="425,-0.5 425,-36.5 "/>
<text text-anchor="middle" x="448.162" y="-14.3" font-family="Times,serif" font-size="14.00">73(1)</text>
<polyline fill="none" stroke="black" points="471.324,-0.5 471.324,-36.5 "/>
<text text-anchor="middle" x="481.074" y="-14.3" font-family="Times,serif" font-size="14.00"> </text>
</g>
<!-- 68&#45;&gt;73 -->
<g id="edge11" class="edge"><title>68:f2&#45;&gt;73:f1</title>
<path fill="none" stroke="black" d="M429.162,-73C429.162,-59.0072 440.528,-55.9467 445.678,-46.9075"/>
<polygon fill="black" stroke="black" points="449.125,-47.551 448.162,-37 442.335,-45.8486 449.125,-47.551"/>
</g>
<!-- 91 -->
<g id="node13" class="node"><title>91</title>
<polygon fill="none" stroke="black" points="508.5,-0.5 508.5,-36.5 593.824,-36.5 593.824,-0.5 508.5,-0.5"/>
<text text-anchor="middle" x="518.25" y="-14.3" font-family="Times,serif" font-size="14.00"> </text>
<polyline fill="none" stroke="black" points="528,-0.5 528,-36.5 "/>
<text text-anchor="middle" x="551.162" y="-14.3" font-family="Times,serif" font-size="14.00">91(1)</text>
<polyline fill="none" stroke="black" points="574.324,-0.5 574.324,-36.5 "/>
<text text-anchor="middle" x="584.074" y="-14.3" font-family="Times,serif" font-size="14.00"> </text>
</g>
<!-- 93&#45;&gt;91 -->
<g id="edge12" class="edge"><title>93:f0&#45;&gt;91:f1</title>
<path fill="none" stroke="black" d="M551.162,-73C551.162,-61 551.162,-55.75 551.162,-47.125"/>
<polygon fill="black" stroke="black" points="554.662,-47 551.162,-37 547.662,-47 554.662,-47"/>
</g>
<!-- 99 -->
<g id="node14" class="node"><title>99</title>
<polygon fill="none" stroke="black" points="611.5,-0.5 611.5,-36.5 696.824,-36.5 696.824,-0.5 611.5,-0.5"/>
<text text-anchor="middle" x="621.25" y="-14.3" font-family="Times,serif" font-size="14.00"> </text>
<polyline fill="none" stroke="black" points="631,-0.5 631,-36.5 "/>
<text text-anchor="middle" x="654.162" y="-14.3" font-family="Times,serif" font-size="14.00">99(1)</text>
<polyline fill="none" stroke="black" points="677.324,-0.5 677.324,-36.5 "/>
<text text-anchor="middle" x="687.074" y="-14.3" font-family="Times,serif" font-size="14.00"> </text>
</g>
<!-- 93&#45;&gt;99 -->
<g id="edge13" class="edge"><title>93:f2&#45;&gt;99:f1</title>
<path fill="none" stroke="black" d="M617.162,-73C617.162,-54.1789 642.06,-57.4505 651.008,-46.569"/>
<polygon fill="black" stroke="black" points="654.355,-47.5931 654.162,-37 647.707,-45.4014 654.355,-47.5931"/>
</g>
</g>
</svg>
