<?xml version="1.0" encoding="UTF-8" standalone="no"?>
<!DOCTYPE svg PUBLIC "-//W3C//DTD SVG 1.1//EN"
 "http://www.w3.org/Graphics/SVG/1.1/DTD/svg11.dtd">
<!-- Generated by graphviz version 2.38.0 (20140413.2041)
 -->
<!-- Title: %3 Pages: 1 -->
<svg width="346pt" height="483pt"
 viewBox="0.00 0.00 345.82 483.00" xmlns="http://www.w3.org/2000/svg" xmlns:xlink="http://www.w3.org/1999/xlink">
<g id="graph0" class="graph" transform="scale(1 1) rotate(0) translate(4 479)">
<title>%3</title>
<polygon fill="white" stroke="none" points="-4,4 -4,-479 341.824,-479 341.824,4 -4,4"/>
<!-- 67 -->
<g id="node1" class="node"><title>67</title>
<polygon fill="none" stroke="black" points="128,-438.5 128,-474.5 220.324,-474.5 220.324,-438.5 128,-438.5"/>
<text text-anchor="middle" x="137.75" y="-452.3" font-family="Times,serif" font-size="14.00"> </text>
<polyline fill="none" stroke="black" points="147.5,-438.5 147.5,-474.5 "/>
<text text-anchor="middle" x="174.162" y="-452.3" font-family="Times,serif" font-size="14.00">67(14)</text>
<polyline fill="none" stroke="black" points="200.824,-438.5 200.824,-474.5 "/>
<text text-anchor="middle" x="210.574" y="-452.3" font-family="Times,serif" font-size="14.00"> </text>
</g>
<!-- 59 -->
<g id="node2" class="node"><title>59</title>
<polygon fill="none" stroke="black" points="80.5,-365.5 80.5,-401.5 165.824,-401.5 165.824,-365.5 80.5,-365.5"/>
<text text-anchor="middle" x="90.25" y="-379.3" font-family="Times,serif" font-size="14.00"> </text>
<polyline fill="none" stroke="black" points="100,-365.5 100,-401.5 "/>
<text text-anchor="middle" x="123.162" y="-379.3" font-family="Times,serif" font-size="14.00">59(9)</text>
<polyline fill="none" stroke="black" points="146.324,-365.5 146.324,-401.5 "/>
<text text-anchor="middle" x="156.074" y="-379.3" font-family="Times,serif" font-size="14.00"> </text>
</g>
<!-- 67&#45;&gt;59 -->
<g id="edge1" class="edge"><title>67:f0&#45;&gt;59:f1</title>
<path fill="none" stroke="black" d="M138.162,-438C138.162,-424.729 129.369,-420.837 125.248,-411.963"/>
<polygon fill="black" stroke="black" points="128.637,-411.071 123.162,-402 121.786,-412.505 128.637,-411.071"/>
</g>
<!-- 79 -->
<g id="node3" class="node"><title>79</title>
<polygon fill="none" stroke="black" points="183.5,-365.5 183.5,-401.5 268.824,-401.5 268.824,-365.5 183.5,-365.5"/>
<text text-anchor="middle" x="193.25" y="-379.3" font-family="Times,serif" font-size="14.00"> </text>
<polyline fill="none" stroke="black" points="203,-365.5 203,-401.5 "/>
<text text-anchor="middle" x="226.162" y="-379.3" font-family="Times,serif" font-size="14.00">79(4)</text>
<polyline fill="none" stroke="black" points="249.324,-365.5 249.324,-401.5 "/>
<text text-anchor="middle" x="259.074" y="-379.3" font-family="Times,serif" font-size="14.00"> </text>
</g>
<!-- 67&#45;&gt;79 -->
<g id="edge2" class="edge"><title>67:f2&#45;&gt;79:f1</title>
<path fill="none" stroke="black" d="M210.162,-438C210.162,-424.595 219.541,-420.877 223.937,-412.013"/>
<polygon fill="black" stroke="black" points="227.41,-412.521 226.162,-402 220.576,-411.003 227.41,-412.521"/>
</g>
<!-- 3 -->
<g id="node4" class="node"><title>3</title>
<polygon fill="none" stroke="black" points="51,-292.5 51,-328.5 129.324,-328.5 129.324,-292.5 51,-292.5"/>
<text text-anchor="middle" x="60.75" y="-306.3" font-family="Times,serif" font-size="14.00"> </text>
<polyline fill="none" stroke="black" points="70.5,-292.5 70.5,-328.5 "/>
<text text-anchor="middle" x="90.1621" y="-306.3" font-family="Times,serif" font-size="14.00">3(8)</text>
<polyline fill="none" stroke="black" points="109.824,-292.5 109.824,-328.5 "/>
<text text-anchor="middle" x="119.574" y="-306.3" font-family="Times,serif" font-size="14.00"> </text>
</g>
<!-- 59&#45;&gt;3 -->
<g id="edge3" class="edge"><title>59:f0&#45;&gt;3:f1</title>
<path fill="none" stroke="black" d="M90.1621,-365C90.1621,-353 90.1621,-347.75 90.1621,-339.125"/>
<polygon fill="black" stroke="black" points="93.6622,-339 90.1621,-329 86.6622,-339 93.6622,-339"/>
</g>
<!-- 76 -->
<g id="node11" class="node"><title>76</title>
<polygon fill="none" stroke="black" points="149.5,-292.5 149.5,-328.5 234.824,-328.5 234.824,-292.5 149.5,-292.5"/>
<text text-anchor="middle" x="159.25" y="-306.3" font-family="Times,serif" font-size="14.00"> </text>
<polyline fill="none" stroke="black" points="169,-292.5 169,-328.5 "/>
<text text-anchor="middle" x="192.162" y="-306.3" font-family="Times,serif" font-size="14.00">76(1)</text>
<polyline fill="none" stroke="black" points="215.324,-292.5 215.324,-328.5 "/>
<text text-anchor="middle" x="225.074" y="-306.3" font-family="Times,serif" font-size="14.00"> </text>
</g>
<!-- 79&#45;&gt;76 -->
<g id="edge10" class="edge"><title>79:f0&#45;&gt;76:f1</title>
<path fill="none" stroke="black" d="M193.162,-365C193.162,-352.995 192.6,-347.751 192.318,-339.127"/>
<polygon fill="black" stroke="black" points="195.816,-338.945 192.162,-329 188.817,-339.053 195.816,-338.945"/>
</g>
<!-- 88 -->
<g id="node12" class="node"><title>88</title>
<polygon fill="none" stroke="black" points="252.5,-292.5 252.5,-328.5 337.824,-328.5 337.824,-292.5 252.5,-292.5"/>
<text text-anchor="middle" x="262.25" y="-306.3" font-family="Times,serif" font-size="14.00"> </text>
<polyline fill="none" stroke="black" points="272,-292.5 272,-328.5 "/>
<text text-anchor="middle" x="295.162" y="-306.3" font-family="Times,serif" font-size="14.00">88(2)</text>
<polyline fill="none" stroke="black" points="318.324,-292.5 318.324,-328.5 "/>
<text text-anchor="middle" x="328.074" y="-306.3" font-family="Times,serif" font-size="14.00"> </text>
</g>
<!-- 79&#45;&gt;88 -->
<g id="edge11" class="edge"><title>79:f2&#45;&gt;88:f1</title>
<path fill="none" stroke="black" d="M259.162,-365C259.162,-346.615 282.928,-349.278 291.84,-338.786"/>
<polygon fill="black" stroke="black" points="295.261,-339.594 295.162,-329 288.633,-337.344 295.261,-339.594"/>
</g>
<!-- 0 -->
<g id="node5" class="node"><title>0</title>
<polygon fill="none" stroke="black" points="0,-219.5 0,-255.5 78.3242,-255.5 78.3242,-219.5 0,-219.5"/>
<text text-anchor="middle" x="9.75" y="-233.3" font-family="Times,serif" font-size="14.00"> </text>
<polyline fill="none" stroke="black" points="19.5,-219.5 19.5,-255.5 "/>
<text text-anchor="middle" x="39.1621" y="-233.3" font-family="Times,serif" font-size="14.00">0(1)</text>
<polyline fill="none" stroke="black" points="58.8242,-219.5 58.8242,-255.5 "/>
<text text-anchor="middle" x="68.5742" y="-233.3" font-family="Times,serif" font-size="14.00"> </text>
</g>
<!-- 3&#45;&gt;0 -->
<g id="edge4" class="edge"><title>3:f0&#45;&gt;0:f1</title>
<path fill="none" stroke="black" d="M61.1621,-292C61.1621,-277.351 47.7344,-275.063 41.8597,-265.822"/>
<polygon fill="black" stroke="black" points="45.1857,-264.716 39.1621,-256 38.4356,-266.57 45.1857,-264.716"/>
</g>
<!-- 24 -->
<g id="node6" class="node"><title>24</title>
<polygon fill="none" stroke="black" points="96.5,-219.5 96.5,-255.5 181.824,-255.5 181.824,-219.5 96.5,-219.5"/>
<text text-anchor="middle" x="106.25" y="-233.3" font-family="Times,serif" font-size="14.00"> </text>
<polyline fill="none" stroke="black" points="116,-219.5 116,-255.5 "/>
<text text-anchor="middle" x="139.162" y="-233.3" font-family="Times,serif" font-size="14.00">24(6)</text>
<polyline fill="none" stroke="black" points="162.324,-219.5 162.324,-255.5 "/>
<text text-anchor="middle" x="172.074" y="-233.3" font-family="Times,serif" font-size="14.00"> </text>
</g>
<!-- 3&#45;&gt;24 -->
<g id="edge5" class="edge"><title>3:f2&#45;&gt;24:f1</title>
<path fill="none" stroke="black" d="M119.162,-292C119.162,-277.844 131.126,-274.999 136.547,-265.968"/>
<polygon fill="black" stroke="black" points="140.01,-266.561 139.162,-256 133.239,-264.785 140.01,-266.561"/>
</g>
<!-- 9 -->
<g id="node7" class="node"><title>9</title>
<polygon fill="none" stroke="black" points="50,-146.5 50,-182.5 128.324,-182.5 128.324,-146.5 50,-146.5"/>
<text text-anchor="middle" x="59.75" y="-160.3" font-family="Times,serif" font-size="14.00"> </text>
<polyline fill="none" stroke="black" points="69.5,-146.5 69.5,-182.5 "/>
<text text-anchor="middle" x="89.1621" y="-160.3" font-family="Times,serif" font-size="14.00">9(1)</text>
<polyline fill="none" stroke="black" points="108.824,-146.5 108.824,-182.5 "/>
<text text-anchor="middle" x="118.574" y="-160.3" font-family="Times,serif" font-size="14.00"> </text>
</g>
<!-- 24&#45;&gt;9 -->
<g id="edge6" class="edge"><title>24:f0&#45;&gt;9:f1</title>
<path fill="none" stroke="black" d="M106.162,-219C106.162,-205.315 95.9926,-201.848 91.3846,-192.793"/>
<polygon fill="black" stroke="black" points="94.7885,-191.977 89.1621,-183 87.9621,-193.527 94.7885,-191.977"/>
</g>
<!-- 30 -->
<g id="node8" class="node"><title>30</title>
<polygon fill="none" stroke="black" points="146.5,-146.5 146.5,-182.5 231.824,-182.5 231.824,-146.5 146.5,-146.5"/>
<text text-anchor="middle" x="156.25" y="-160.3" font-family="Times,serif" font-size="14.00"> </text>
<polyline fill="none" stroke="black" points="166,-146.5 166,-182.5 "/>
<text text-anchor="middle" x="189.162" y="-160.3" font-family="Times,serif" font-size="14.00">30(5)</text>
<polyline fill="none" stroke="black" points="212.324,-146.5 212.324,-182.5 "/>
<text text-anchor="middle" x="222.074" y="-160.3" font-family="Times,serif" font-size="14.00"> </text>
</g>
<!-- 24&#45;&gt;30 -->
<g id="edge7" class="edge"><title>24:f2&#45;&gt;30:f1</title>
<path fill="none" stroke="black" d="M172.162,-219C172.162,-205.315 182.332,-201.848 186.94,-192.793"/>
<polygon fill="black" stroke="black" points="190.362,-193.527 189.162,-183 183.536,-191.977 190.362,-193.527"/>
</g>
<!-- 55 -->
<g id="node9" class="node"><title>55</title>
<polygon fill="none" stroke="black" points="179.5,-73.5 179.5,-109.5 264.824,-109.5 264.824,-73.5 179.5,-73.5"/>
<text text-anchor="middle" x="189.25" y="-87.3" font-family="Times,serif" font-size="14.00"> </text>
<polyline fill="none" stroke="black" points="199,-73.5 199,-109.5 "/>
<text text-anchor="middle" x="222.162" y="-87.3" font-family="Times,serif" font-size="14.00">55(2)</text>
<polyline fill="none" stroke="black" points="245.324,-73.5 245.324,-109.5 "/>
<text text-anchor="middle" x="255.074" y="-87.3" font-family="Times,serif" font-size="14.00"> </text>
</g>
<!-- 30&#45;&gt;55 -->
<g id="edge8" class="edge"><title>30:f2&#45;&gt;55:f1</title>
<path fill="none" stroke="black" d="M222.162,-146C222.162,-134 222.162,-128.75 222.162,-120.125"/>
<polygon fill="black" stroke="black" points="225.662,-120 222.162,-110 218.662,-120 225.662,-120"/>
</g>
<!-- 50 -->
<g id="node10" class="node"><title>50</title>
<polygon fill="none" stroke="black" points="146.5,-0.5 146.5,-36.5 231.824,-36.5 231.824,-0.5 146.5,-0.5"/>
<text text-anchor="middle" x="156.25" y="-14.3" font-family="Times,serif" font-size="14.00"> </text>
<polyline fill="none" stroke="black" points="166,-0.5 166,-36.5 "/>
<text text-anchor="middle" x="189.162" y="-14.3" font-family="Times,serif" font-size="14.00">50(1)</text>
<polyline fill="none" stroke="black" points="212.324,-0.5 212.324,-36.5 "/>
<text text-anchor="middle" x="222.074" y="-14.3" font-family="Times,serif" font-size="14.00"> </text>
</g>
<!-- 55&#45;&gt;50 -->
<g id="edge9" class="edge"><title>55:f0&#45;&gt;50:f1</title>
<path fill="none" stroke="black" d="M189.162,-73C189.162,-61 189.162,-55.75 189.162,-47.125"/>
<polygon fill="black" stroke="black" points="192.662,-47 189.162,-37 185.662,-47 192.662,-47"/>
</g>
<!-- 85 -->
<g id="node13" class="node"><title>85</title>
<polygon fill="none" stroke="black" points="219.5,-219.5 219.5,-255.5 304.824,-255.5 304.824,-219.5 219.5,-219.5"/>
<text text-anchor="middle" x="229.25" y="-233.3" font-family="Times,serif" font-size="14.00"> </text>
<polyline fill="none" stroke="black" points="239,-219.5 239,-255.5 "/>
<text text-anchor="middle" x="262.162" y="-233.3" font-family="Times,serif" font-size="14.00">85(1)</text>
<polyline fill="none" stroke="black" points="285.324,-219.5 285.324,-255.5 "/>
<text text-anchor="middle" x="295.074" y="-233.3" font-family="Times,serif" font-size="14.00"> </text>
</g>
<!-- 88&#45;&gt;85 -->
<g id="edge12" class="edge"><title>88:f0&#45;&gt;85:f1</title>
<path fill="none" stroke="black" d="M262.162,-292C262.162,-280 262.162,-274.75 262.162,-266.125"/>
<polygon fill="black" stroke="black" points="265.662,-266 262.162,-256 258.662,-266 265.662,-266"/>
</g>
</g>
</svg>
